<svg width="32" height="32" viewBox="0 0 32 32" fill="none" xmlns="http://www.w3.org/2000/svg">
<path d="M3.33581 28.1541C3.33581 28.4372 3.57204 28.6666 3.86347 28.6666L28.1349 28.6667C28.4263 28.6667 28.6625 28.4372 28.6625 28.1542V27.5421C28.6747 27.3576 28.6993 26.437 28.0925 25.4193C27.7099 24.7776 27.1545 24.2232 26.4419 23.7716C25.5797 23.2252 24.483 22.8294 23.1565 22.591C23.1467 22.5898 22.1631 22.4594 21.1554 22.202C19.4007 21.7538 19.2473 21.3572 19.2463 21.3533C19.2359 21.3141 19.221 21.2764 19.2019 21.241C19.1875 21.167 19.1521 20.8886 19.2199 20.1424C19.392 18.2474 20.4085 17.1274 21.2253 16.2275C21.4829 15.9437 21.7262 15.6756 21.9136 15.4128C22.7218 14.2788 22.7968 12.9893 22.8002 12.9094C22.8002 12.7474 22.7816 12.6143 22.7418 12.4909C22.6625 12.244 22.5132 12.0901 22.4042 11.9778L22.4035 11.977C22.376 11.9487 22.3501 11.9219 22.3289 11.8973C22.3208 11.8879 22.2993 11.863 22.3189 11.7354C22.3906 11.2654 22.4337 10.872 22.4543 10.4971C22.4911 9.82924 22.5199 8.83044 22.3476 7.85837C22.3263 7.69237 22.2898 7.51704 22.2329 7.30817C22.0509 6.6388 21.7585 6.06651 21.3523 5.5942C21.2824 5.51819 19.5837 3.72857 14.6525 3.36138C13.9707 3.31061 13.2966 3.33796 12.6331 3.37187C12.4731 3.37978 12.2541 3.39063 12.0492 3.44373C11.5401 3.57562 11.4042 3.89833 11.3685 4.07893C11.3094 4.37809 11.4133 4.61081 11.4821 4.76483V4.76484V4.76486C11.4921 4.78719 11.5044 4.81479 11.4829 4.88669C11.3684 5.06396 11.1883 5.22378 11.0047 5.37519C10.9517 5.42029 9.71513 6.48649 9.64713 7.87931C9.4638 8.93857 9.47766 10.589 9.69446 11.7296C9.70706 11.7926 9.72566 11.8859 9.69546 11.9489C9.46233 12.1578 9.19806 12.3946 9.19873 12.935C9.20153 12.9893 9.27653 14.2788 10.0848 15.4128C10.272 15.6754 10.5151 15.9433 10.7725 16.2269L10.7731 16.2275V16.2276C11.5899 17.1274 12.6063 18.2474 12.7785 20.1424C12.8463 20.8885 12.8108 21.167 12.7965 21.241C12.7773 21.2764 12.7624 21.314 12.7521 21.3532C12.7511 21.3571 12.5983 21.7525 10.8515 22.1998C9.84373 22.4578 8.85166 22.5897 8.82206 22.594C7.53293 22.8116 6.44292 23.1976 5.58234 23.741C4.87208 24.1896 4.31569 24.745 3.92859 25.3918C3.31011 26.4253 3.32683 27.3665 3.33581 27.5383V28.1541Z" stroke="white" stroke-width="2.5" stroke-linejoin="round"/>
</svg>
