<svg width="32" height="32" viewBox="0 0 32 32" fill="none" xmlns="http://www.w3.org/2000/svg">
<path d="M7.23859 6.57202C4.82571 8.98487 3.33333 12.3182 3.33333 16.0001C3.33333 19.682 4.82571 23.0153 7.23859 25.4282" stroke="white" stroke-width="2.5" stroke-linecap="round"/>
<path d="M26.0947 25.4282C28.5076 23.0153 30 19.682 30 16.0001C30 12.3182 28.5076 8.98487 26.0947 6.57202" stroke="white" stroke-width="2.5" stroke-linecap="round"/>
<path d="M23.2663 22.5998C24.9553 20.9108 25.9999 18.5775 25.9999 16.0002C25.9999 13.4228 24.9553 11.0895 23.2663 9.40051" stroke="white" stroke-width="2.5" stroke-linecap="round"/>
<path d="M10.067 9.40051C8.37799 11.0895 7.33333 13.4228 7.33333 16.0002C7.33333 18.5775 8.37799 20.9108 10.067 22.5998" stroke="white" stroke-width="2.5" stroke-linecap="round"/>
<path d="M18.7879 13.3334C20.1937 13.3334 21.3333 14.4079 21.3333 15.7334C21.3333 17.4588 19.6363 18.9334 18.7879 19.7334C18.2222 20.2667 17.5151 20.8 16.6667 21.3334C15.8182 20.8 15.1111 20.2667 14.5455 19.7334C13.697 18.9334 12 17.4588 12 15.7334C12 14.4079 13.1397 13.3334 14.5455 13.3334C15.4309 13.3334 16.2107 13.7596 16.6667 14.4062C17.1227 13.7596 17.9025 13.3334 18.7879 13.3334Z" stroke="white" stroke-width="2.5" stroke-linejoin="round"/>
</svg>
