<svg width="32" height="32" viewBox="0 0 32 32" fill="none" xmlns="http://www.w3.org/2000/svg">
<path d="M16 4V28C11.3333 28 7.86567 21.8927 7.86567 21.8927H4.00001C3.26363 21.8927 2.66667 21.2958 2.66667 20.5594V11.3405C2.66667 10.6041 3.26363 10.0072 4.00001 10.0072H7.86567C7.86567 10.0072 11.3333 4 16 4Z" stroke="white" stroke-width="2.5" stroke-linejoin="round"/>
<path d="M21.3333 10C21.7488 10.371 22.1254 10.7865 22.4561 11.2392C23.4258 12.5669 24 14.2149 24 16C24 17.7697 23.4357 19.4045 22.4812 20.7262C22.1445 21.1923 21.7594 21.6195 21.3333 22" stroke="white" stroke-width="2.5" stroke-linecap="round" stroke-linejoin="round"/>
<path d="M22.8239 27.4571C26.7224 25.1302 29.3333 20.87 29.3333 16C29.3333 11.2057 26.8029 7.00234 23.0047 4.65271" stroke="white" stroke-width="2.5" stroke-linecap="round"/>
</svg>
